<!-- http://www.smashingmagazine.com/2015/09/making-svg-maps-from-natural-earth-data/ -->
<!-- https://gist.github.com/youderian/fbff53fe18b13116adf5 -->
<svg xmlns="http://www.w3.org/2000/svg" fill="none" stroke="#000" stroke-linejoin="round" viewBox="0 0 1000 647">
  <path d="M705 347h-2l-4 3-1-1v-3l-2-2-3 3-1 1h-1l-2 1-1-1h-4v-1h-2v1h-2l-1 3-4 2v1l-2 1-3-2-1 5-1 2 1 1-1 1 1 5 2 1v2l-2 3 4 1h7l4-2v-2l2-2 6-2v-2l1-2 2-1-1-2h3v-2l2-2-1-3 1-1 8-2 1-1v-1h-3Z" data-id="AF"/>
  <path d="m534 477 3 6-1 1 1 4 1 5-3 4-3 9 1 2 3-1 3 1h12l2 2h6l5-1-1-2-2-2v-9h6v-5l-1-1h-5l1-3-2-3 1-1-1-3-6-1-6 3-2-4-1-2h-11v1Zm2-4-1-1h-1l-1 1 1 3v-1l1-1v-1h1Z" data-id="AO"/>
  <path d="M554 330v7l1 2 1 1 1-2v-1l1-1v-1l-1-1v-4h-1v-1h-1v-1l-1 2Z" data-id="AL"/>
  <path d="m654 386-4 4-6 1v-1h-1v1l1 3 9 1v-1l2-6h1v-3l-2 1Z" data-id="AE"/>
  <path d="M310 632v10h4l2 2h2l2-3-4-1-4-3-1-3-1-2Zm4-108v1l-1 3-3 2 1 7-2 2-2 3-1 3v3l-2 3 2 6v3l-1 4v3l-2 2v3l1 3-2 2-1 7v4l-1 1 1 4 1 2-1 1 1 6-1 5-2 3v5l-3 2 1 5 1 1h1v3l2 3h6l3 1h1l-2-2-1-5 1-2 3-2 2-5 3-2 1-4h-3l-2-3v-3l3-2h2l1-6 2-3 3-1-1-2-1 1-2-1-1-3 1-1 3 1 3-1 2-1-1-2 1-2-1-3 3 1 6-1 4-2 2-4 1-2-2-2v-2l-3-3v-2l1-6v-3l1-3 4-4 7-6v-2l-1-2h-2v3l-2 2-3 1-6-1 3-5v-1l-3-2-3-2h-3l-5-5v-1h-3l-2 2-1-2-4-1-2 3Z" data-id="AR"/>
  <path d="m629 340-3-1 1-2-2-2v-1h-4v3l2 1 1 1h1l1 1h1v1l1 2h1v-3Z" data-id="AM"/>
  <path d="m695 619 1-3h-3l-2-2v5h4Z" data-id="TF"/>
  <path d="m903 584-2-1v2l2 3v3l2 3 4-2 1 1 1-3v-6l-5 1-3-1Zm-5-86v-3l-3-6-1 1-1 4v8l-2 6-2 1-5-2-8-5 1-4v-1l3-3-1-1-4 1-9-3 2 1v1h-4l-2 1-3 6 1 1h-4l-4-3-3 2-4 3v2h-2v1l1 1-2 1-1-2-2 2v3l-4 4-7 2-2 1-4 1-4 2-1 3v-3l-2 2-1 6 3 4v2l-2-2 2 8 2 4v2l2 5v2l-1 4-1 1v1l4 3h4l4-1 2-2 3-1 3 1 4-1 2-3 5-2h3l6-2h5l3 1h2l3 2 3 5v1l2 2 1-3 2-1 2-3v3l-1 3-2 2 3-1 1-2 1 3-1 1 3 1 2 5 2 3 8 2 3-2 1-1v2l4 2 5-4h3l2-1 1-7 1-1 3-7 2-2 2-5v-2l1-7-1-3v-4l-1-2-5-6-1-3-2-1-1 1-2-6-7-4-1-2-2-8v-2l-2-2-2 1-1-2Z" data-id="AU"/>
  <path d="M546 304h-2l-4 1-2-1-1 2h-1l-1 3h-8v1l-1 1 2 1h3l3-1v1l4 1 3 1 1-1h2l1-1 1-3-1-1h2v-3l-1-1Z" data-id="AT"/>
  <path d="m624 339 1 2 1 1 2 1-1-2v-1h-1l-1-1h-1Zm5-8-1 1 1 2-4-1v2l2 2-1 2 3 1v3l3-3 2 1-1 2 3 1v-2l1-4 3-1-2-1-2-2-1-2-2 1v1h-2l-2-3Z" data-id="AZ"/>
  <path d="M585 466h-2l-1 2-1-1v2l1 3h1l1-1 1-3v-2Z" data-id="BI"/>
  <path d="m509 293-2 1 2 1 3 4h1l3 2v-3h1v-3l-1-1-2-2-3 1h-2Z" data-id="BE"/>
  <path d="M508 425h-1l-1 1-1 1h-1l-1 1-1 1v1l3 4-1 6 1 2h2l1-6 3-7-1-1v-1l-2-2Z" data-id="BJ"/>
  <path d="m499 418-5 1-4 3h-1l-1 2-2 3-1 2v2h1l1 1h3l2 1v-4l7-1 1 1h2l1-1 1-1h1l1-1v-2l-3-1-2-4v-1h-2Z" data-id="BF"/>
  <path d="m756 392-2 2-1-2 2-2 1-2-7-1v-2l-3-2-1 2 2 2-3 2 2 1v2l1 5h3l1-3 3 1 1 4 1 2v-3l1 1v-2l-1-5Z" data-id="BD"/>
  <path d="m563 322-1 1v2l2 1-1 3-1 1 1 1 1 2h2l2-1 2 2 2-1v-2l3-1 3 1-1-2 1-3 1-2-3-1-5 1h-7l-1-2Z" data-id="BG"/>
  <path d="m285 392-2-5v2l2 3Zm-1-9-3-1v1h3Zm2 0h-1v2l1-2Z" data-id="BS"/>
  <path d="m551 328 1-2 1-1h1v-2l-1-1 1-2h-1l-2-1h-6l-1-1v2l5 7 2 1Z" data-id="BA"/>
  <path d="m578 270-3 2-2 1 1 2-3 2v2l-3 2h-3v2l1 4-2 1 1 2v2h2l1-1h5l3 1h4l1 1h4l1-3h2l-1-3v-2h3l1-1-4-4-2-3 1-4-3-1-2 1v-1l-3-2Z" data-id="BY"/>
  <path d="m254 414 1-1v-6l-2 2v6l1-1Z" data-id="BZ"/>
  <path d="m340 516 1-5-3-6h-5l-1-3h1l-1-4-3-1-4-2-3-1-3-2v-5h-4l-4 3h-4l3 5-1 5-1 1v2l1 3-2 3 1 2 1 2 1 1-1 3 2 3 1 5 2-1 2-3 4 1 1 2 2-2h3v1l1-4 2-4 4-1h3l3 2v1l1-1Z" data-id="BO"/>
  <path d="m343 454-5 2h-2l-2-4 1-4-2-3h-1v1l-1 1-5 1-1 1-5-1 1 1 1 5-3 2-3 1-1-1h-1l-2-1h-6v1l2 1-2 1v2l1 4-1 7h-2l-6 3-1 4-1 1-1 1 2 5v1h2l1 1 2 1 3-2-1 4h7l4-3h4v5l3 2 3 1 4 2 3 1 1 4h-1l1 3h5l3 6-1 5-1 1v5l3 1 1-1 4 6h1l1 4-1 1h2l1 2v2l-7 6-4 4h2l3 3 1-1 6 7-1 1 1 2 2-2 1-3 4-4 3-6 4-6-1-4 3-3 3-3 3-1 2-1 5-1h3v-2l2-1 1-3 3-4v-4l2-8v-5l3-5 2-3 6-6 1-4-2-5-1-1-4-1-4-3-4-3-4 1-5-2-4 1 1-2-2-1-8-3-2 2v-3h-5l-1-1 2-2v-2l-1-1-2-6h-1l-4 6h-3l-1-1-2-1-1 1-1-1v2h-2Z" data-id="BR"/>
  <path d="m818 446-1 1 1 1 2-1v-3l-2 2Z" data-id="BN"/>
  <path d="M753 378h-5l-2 3 3 1h6v-2l-1-1-1-1Z" data-id="BT"/>
  <path d="m570 509-2 1-3 1-1-1-6 1v10l-3 1v8l1 1 2 3v3l2-1 3-3 2-1 2 1h2l3-3h1l2-3 3-3 4-2-2-1-2-1-2-3-3-3-2-2-1-3Z" data-id="BW"/>
  <path d="m566 435-1-1v-3l-1-1-1-2-1 1-2 1-2 3-2 1h-4v1l-2 2-5 2h-3l-1 3h-1v4l4 5v2l2-2 2-2 1 1h2v-2l3-3 8 3 6-3h8l-1-1-2-1-3-4-2-2-2-2Z" data-id="CF"/>
  <path d="m323 313-1-2-1 1 1 2 4 2 2-2-5-1Zm6-10v-1l-3-2-4-1h-1l3 2 3 2h2Zm-172 2-1-2-2-2-3-3-2-1-5-2 1 4 3 1v1l3 1v2l5 2 1-1Zm187-9 1-4-2 1-2 3-3 7-2 2 1 1-2 2 1 1h8l3 1-2 2h1l4-4v4l3 1 1-4-1-5-2 1 1-3-3-1-1 1-3-1 1-2-2-1-2 2 2-4Zm-213-16v4l4 5h1l-2-3 1-6-3 1-1-1Zm149-42-2-2v4l1 1 1-3Zm-7-4v-1h-4l-2 3 1 2h2l3-4Zm-9-18-2-1-1 6v5l-3 3h4l1 3 4-3 2-3 2 3 4 1 3-2-2-2-2 1v-3l-8-6-2 1v-3Zm26-11 2-6-2-2-3 1-1 4v4l4-1Zm-55-14-4-6-3-3-2 4-3 2 4 4 2-1 4 2 2-2Zm-126-5v62l3 1 2 1 2 3 3 3 2-3 3-2 2 3 2 2 2 3 2 4 3 5 4 4 1 3-2 2v2l3 4 1 4 3 2v2l2 4 5 2 7 6h77l1-2 1 3 5 1 3 2 2-1 3 1 2-1 2-3 3 1 4 3 3 1v4h1l-1 2h1l1-1v1l7 1 2 1 3 4-1 1h-2l-2-3 1 3-2 2v3l-2 1-1 2-1 2h2l4-3 2 1 4-2v-1h-2l1-1 5-2 1 1 2-1 4-4h10v-1l3-2 1-3 2-3 1 1 2-1 1 1v6l2 2 3-1h4l-4 3v4h2l3-3 3-1 6-3 3-2-2-2v-3l-3 5h-4l-4-2-2-7 3-3-2-2-5 1-5 3-5 5-2 1 3-4 4-5 4-2 2-3h17l4-4 5-1 4-4-1-5-1-2h-2l-1-4-2-2-4-1-3-3-3-3 1-3-7-13-2-5-2 3-3 6-4 3-2-3-2-1-1-7v-5h-5l-1-3-6-5-2 2-8-3-2 2 1 9 2 5-4 6 4 4 1 4 1 3-2 4-3 3-4 3 2 2 1 7-2 5-2 2-4-5-2-5-1-5 1-4h-8l-3-3-3-1-2-2-3-2-5-2-4 1-3-9-4-1 1-6 1-5 3-6 3-5 3-1v-4l3-3h4l3-4 1-3 2-6 1-4 3 3 4-1 5-5 1-4-2-4 2-4v-4l-4-4-4-1h-4v8l-2 7-3 5-3-5 1-5-3-5-4 6v-8l-5-2 2-4-4-9-2-4-4-2-3 7-1 9 4 3 3 5-2 8-2-1-2 6v-7l-4-2-2 1v5h-4l-4 1-5-4-3 1-3-4-2-2-6 1-2 3 3 3-3 4-3-5-2 2h-8l-5-1 4-4-4-4-2 1-4-2-7-2-4-4h-3l-1 2-4 1v-6l-4 6-4-7-2-1-1 4-2 1-2-3-5 2-4 4-4-1-3 2-3 3h-2l-5-4-5-2Zm74-30-2-2-8 6-2 4-2 7 5 2h4l-6 3 1 3h10l5 2-3 1h-4l-6 2 3 6 2-1 4 3 2 3 12-2 5-2 3-1 5 2 5 1 1-2-2-3 5-1v-4l-5-3-5-5-1-6-1-9-3-3-3-2-3 2 2 9-1 4-2-9-3-3-3 5-4-5-6 3 1-5Zm27-3-2-2-4 1-1 1 5 7 2-7Zm78 3-5-5-6-1-1 1v3l3 5 1 1 3-1h6l-1-3Zm-28 0 2-6-7 2-3 4-2 8 1 9h4l-3 4 2 3 5 2 5 2 11 2 5-1 1-3 2 3 3 1 3 4-2 2 5 3 5 4 2 5-4 7-1 4 1 2-6 1h-5l-2 5 2 2 8-1v-2l9 6-1 2 3 3 6 4 7 2v-2l-7-9 7 5 4 2 1-5-2-6-1-2-4-3-3-4v-3l4-1 4 6 4 3 5-8v-5h-4l-4-7-4-1-7-5 5-4-2-7-3-4-6-3-3-5-6 2v-4l-4-5-6-4-2 3-6 3v-6l-4-10-7 4-3 8-2-6Zm-38-7-4 5 3 6-5-1v3l7 7 2 3 2 1 5-3v-9l-4-4 3-4-1-3-5 1-3-2Zm20 11 3-2 4-9-5-2-6-1-3 3-1 4v5l1 8h4l3-6Zm-76 12v-4l3-6 7-7 4-2-3-4-3-3-7-1-4-2-9 2 2 6-2 6-3 11 6 4 2 4 7-4Zm74-35-1-3-2-4-4 3-2 5 4 3 4 1 1-5Zm-13-19v1h-4l-4 4-3-1v9l4-1v7l3 1 5-1 1-8v-6l-2-5Zm-27 6-1-6-3-1-2 4 4 11-5-1-5-6-8-4-3 3-3 11 3 2 13-2-6 5 1 4 4-1 7-4 9-2 2-5-1-6h-3l-2 2-1-4Zm37-11-5-1-1 5 3 4 6 1 2 5 1 6 1 6 7 3 5 2 5-1 8-1 4 1 4-2 2-3-1-4-3-5h-5l-5 1-5 2-7-1-2-3-3-3v-4l-2-4h-6l-3-4Zm-59-7-4 2h-4l-6 8-1 11 4-1 6-5 2-1 2-4 1-10Zm62 2v-2l-2-2h-5v3l5 1h2Zm-46-3 1-4-4-2-4 2-2 4 4 4 5-4Zm2-12-5-3-3 4v2h4l4-3Zm38 8 1-5-3-5-2-1-4-1 1 6 1 5 2 3 4-2Zm-12-4-2-7-7-5-6-2 1 6 3 3-3 4 6 1 5 4 5 2-2-6Zm37-19-3-11-9-7-3-9-7 1 1 4-2 1-2 5-2 8 2 7 3 5h5l-3 4v5l3 6 6 2 5-1 5-11 4-4-3-5Zm51-65-12-3-8 4-1-3-9 1-5 3-4 4-2 11-3-6-3-1-4 8-6 3-3 1-4 4 1 6 3 6 2 7 5 6 10-1 6 2-4 6-3-2-7-1 1 8 4 6-1 6-5 3-2 5 5 3 3 8-7-5-2 1 2 9-6 3 1 6h5l4 2 8-2 8 3 7-7v-3h-5v-2l4-4 1-5 4-4 3-5-2-7 2-2-4-2 8-2 2-3 6-3 4-13 5-5 6-11h-6l3-4 7-4 6-9v-5l-5-6-6-3-7-2Z" data-id="CA"/>
  <path d="m524 308-1 1h-2l-1 1-3 2v2h1l1 1 1 1 5-1v-1h3l1-1v-1h-1l-2-1 1-1v-1l-3-1Z" data-id="CH"/>
  <path d="M314 642h-4v-10l-2-1-3 2-1 3-1 2-4-1-4-3-2-1 4 5 6 5 3 1 5 2 2-2 1-2Zm-7-133-1 1-1 1v4l1 5-2 13-1 6-1 4v4l-1 3 1 5-1 4-4 11-1 1v4l1 3-1 2-2 13h2v-5l2 1-1 8-3-1-1 7-3 3 4 1-3 3-1 4 1 8 1 3-1 2 1 3 7 6 3 1h1l1-4 3-3h3l-3-1h-6l-2-3v-3h-1l-1-1-1-5 3-2v-5l2-3 1-5-1-6 1-1-1-2-1-4 1-1v-4l1-7 2-2-1-3v-3l2-2v-3l1-4v-3l-2-6 2-3v-3l1-3 2-3 2-2-1-7 3-2 1-3v-1l-2 1-1-5-2-3 1-3-1-1-1-2-1-2Z" data-id="CL"/>
  <path d="m806 407 2-3-1-1h-4l-2 2v2l3 1 2-1Zm47-111-4-10-2-1-4-2h-4l-3 1-3 3 2 1v2l-2 2-2 4v2l-4 3-3-2-2 4-2 4 1 1h2l2 1 2-2 3 1 2 3v2l-2-1-4 1-2 1-2 2-5 2-2 2-5-1-1 2 1 3-4 4-3 1h-4l-5 1-3 2-1-1h-3l-5-2-2-1-4 1-6-1h-3l-1-2-2-4h-1l-4-3-7-1-1-1 1-5-2-3-4-2-2-2-1-3h-1l-2 3h-2v5l-2 1-5-1-2 7-2 1-5 2 2 6-2 1 1 3h-1l-4 2-1 2h-4l-1 3-3-1-4 3-1 1 1 4 1-1 2 1v4l2 2 1 3 5 1 3 4v3l1 1v2h-2v3l3 2 4 3 1-1 7 3 1 2 4 2 3 1h3l2-1v3l2-3h5l1 1h3l2-3 3-2 3 1 2-1 1 2-1 1 3 1 2-1 2 3v5l-3 3v3h3v2l2 1-1 2 4 2 2-1v2h1v-3l1-1h2l5-1 2-1 1 1h3v2l1 1 3 1h1l4 1-1 1 1 2h1l1-3 3-1 4-1 2-2 1 1 1-1h3l8-6 3-3 4-8h1l2-5-2-1-1-2 2-1v-2l-3-6-2-3-3-2 2-2 3-2 1-2 4-1-1-2h-1l-3-1-3 2-2-1v-1l-3-1-1-2 1-2h3l2-2 3-3 2-1 2 2-2 2v1l-1 2 3-1 2-1 4-2 2-2 3-2 2-2 1 1h3l-1-2 4-2 2-2 1 2v-2h2v-4l-1-4 3-1 3 1 2-4 1-4 1-2 1-4-4 2-2 1h-5l-1-4-3-3-5-1-1-4Z" data-id="CN"/>
  <path d="m484 431-1-1-2 1h-4l1 5-1 1v1l-1 1 3 5v3l5-1 3-1 4 1h1l-1-4 1-3 1-2-1-4-2-1h-3l-1-1h-2Z" data-id="CI"/>
  <path d="m541 425-1-2-1 1v1l1 1v1l-2 2-3 6-1 1-1 4-2 1-5 1-2 4v1l2 2 1 2v2h13l2 1 2 1v-4l-4-5v-4h1l1-3 1-1-4-5v-2l4 1-2-3v-4Z" data-id="CM"/>
  <path d="M551 450v1l-2 6v4l-2 2-3 4v2l-4 4h-5v1l-1 1v1h11l1 2 2 4 6-3 6 1 1 3-1 1 2 3-1 3h6l3 1 1 1 3 1 1-1 1 1 2 1 2 3h2v-4l-3-1 1-6-1-1 1-2 5-1-4-6v-12l1-1v-2l1-1v-4l3-3h-1l1-3-3-2-1-1h-4l-2-2h-8l-6 3-8-3-3 3v2Z" data-id="CD"/>
  <path d="m549 450-1-1-2 2-2 2v2l-2-1-2-1h-4v1l1 2h3l-2 3 2 2-1 5h-3l-1-1v1l-3 1 1 2-2 1 2 3 1-1h1l1 1h4l4-4v-2l3-4 2-2v-4l2-6v-1h-2Z" data-id="CG"/>
  <path d="m303 426-2-1-5 3h-2l-3 2-2 3-2 2h-2l1 2-1 1-1 1 1 2 1 8-2 3h-2l-1 3v1l4 2 3 1h2l1 1h1l4 3 1 3h7l2 1-2 3h1l1 1 1-7-1-4v-2l2-1-2-1v-1h6l2 1h1l-1-3-2-1 1-2-1-3 1-5h-5l-2-2h-6l-1-4-2-2 1-4 2-3h2l1-1Z" data-id="CO"/>
  <path d="M262 429v3h3v1l3 3 2 1v-2h1v-2l-1-1-1-2-1-1h-1l-5-1v1Z" data-id="CR"/>
  <path d="m279 395-3-1-10 1v1h2l2-1h3v1l4 1 3 1h2l4 4-2 1h10v-1l-6-3-5-4-3 1-1-1Z" data-id="CU"/>
  <path d="m594 355 2-2-3 1-2 1h2v1l1-1Z" data-id="-99"/>
  <path d="m589 355 1 2h1l3-1v-1l-1 1v-1h-4Z" data-id="CY"/>
  <path d="m540 294-3 2-3 2 1 3 1 1 2 2 2 1 4-1h2l1 1v-1h2l2-3h1l-1-2h-2v-2h-2l-1 1-1-2-2-1-1-1h-2Z" data-id="CZ"/>
  <path d="m538 280-3-1-2 1-3 1v-2l-2-1v-2l-2 1-2-1v5l-1 2-1-1h-2l-1 1 1 2-2 6h-1v10l1 1 4 1-1 3v3h2l1-1 3 1h8l1-3h1l1-2-2-2-1-1-1-3 3-2 3-2h2l-1-3-2-5 1-2-1-2-1-2Z" data-id="DE"/>
  <path d="m618 427 2-1v-1l-1-1v1l-2-1-1 2v3h1l1-1 1 1 1-2h-2Z" data-id="DJ"/>
  <path d="m535 273-1-2-4 1 1 2 3 3 1-4Zm-11 3 2 1 2-1-1-2 2-4 1-1-1-4v-3l-3 3-2 1-2 2 1 5 1 3Z" data-id="DK"/>
  <path d="m301 409 1 1 6-3 1 1 2-1-3-2h-2l-2-2h-3v3l-1 1 1 2Z" data-id="DO"/>
  <path d="m521 349-1-1h-3l-2 2-2-1-9 1-4 3h-3l-3 2 2 10h-3l-3 2v2l-3 2-2 1-5 1-4 3v4l10 8 10 6 9 7 4 3v2l3-1 4-1 8-6 9-6-1-1-2-2-1 1-3-6 1-1v-9l-1-3-1-6-4-4v-2l2-2v-8h-2Z" data-id="DZ"/>
  <path d="M290 459h-2l-3-1-4-2-2 1-3 5 1 5 1-1 1 1-2 2v3l3 1 2-1 2-4 3-1 3-3 1-2v-2l-1-1Z" data-id="EC"/>
  <path d="m570 367-1 2v28h33v-1l-3-2v-3l-2-3-6-12-1-3 2 4 2 3 1-1 2-5v-1l-2-5-1 1-6-1h-6l-2 1-7-2h-3Z" data-id="EG"/>
  <path d="m607 409-2 1-2 1-1 1v2l-1 4v1l3 1 1-3 2 2h4l2 1 1 1 1 1 2 1v1l2 1v-1l-1-1-4-4-5-4-1-3-1-3Z" data-id="ER"/>
  <path d="m490 325-2 1-3-1h-4l-3-1-4 3 1 2v2l2-1 1 2 4-1v2l-1 1-1 5-1 1 1 2-1 6 3 1 3 3 3-2h6l2-3h2l1-3 1-1-1-2 1-3 2-4h4l2-3v-2l-3 1-3-2-1 1-5-2-1-2h-5Z" data-id="ES"/>
  <path d="m567 262 3-1 1 1 2 2h3l1-2-1-5 2-3v-1h-3l-3-1-4 1-3 2v3l2 2 1-1-1 3Z" data-id="EE"/>
  <path d="M601 419v2l-2 3-1 2-3 4-1 3v2l-2 1-1 2h2l3 3 2 3 1 1 7 4 4 1 3-2 1 1h2l1-1h2l2-2h4l8-9h-3l-9-3-1-1-1-2-1-1 1-1-1-1-1 1h-1v-3l1-2v-1l-2-1-1-1-1-1-2-1h-4l-2-2-1 3-3-1Z" data-id="ET"/>
  <path d="m580 186-3-4-4 3-2 6-2 3-3-2-4 1-3-4-2 2 4 4 4 5v11l1 2 4 3v3l-1 2-7 7-2 4-2 3 2 5-1 6 3 2 1 3 5-1 5-2 5-1 8-10 1-3-4-5 1-4-2-5 2-5-3-8 2-6-4-5v-5l1-5Z" data-id="FI"/>
  <path d="m995 508-3 1v2h3v-3Zm2-1 2-1v-1l-4 1 1 1h1Z" data-id="FJ"/>
  <path d="m338 625-2 2-2-2-4 3 2 2 2-2 1 2 4-2 1-1-2-2Z" data-id="FK"/>
  <path d="m356 447-3-3h-2l-1-1-1 3v2l1 1v2l-1 1v1l1 1h3l4-6-1-1Z" data-id="GF"/>
  <path d="M536 453h-5v3h-4l-1 1v2l-2 4 2 2 2 3 3 2 2-1-1-2 3-1v-1l1 1h3l1-5-2-2 2-3h-3l-1-2v-1Z" data-id="GA"/>
  <path d="m479 275 1 3-1 3h4l1-3-3-3h-2Zm13-17h-6l-2 4-1 5 1 3 1 4 1-2 1 2-1 2 1 1 5 4-1 3-4-1v3l1 3-3 1 3 4-4 4 1 1 2-2 3 1 2-2 1 1 5-2h4l2-2-1-2 1-1 1-3-4-1-2-7-2-1-6-7 3-4 1-4h-6l3-5Z" data-id="GB"/>
  <path d="m611 325 1 2h1l2 1 1 3-1 2 3-1 3 2h4v-1l4 1-1-2 1-1-2-1-1-1-2-1-2 1-1-1-3-2h-5l-2-1Z" data-id="GE"/>
  <path d="m499 428-7 1v4l1 4-1 2-1 3 1 4h5l2-1 4-2-2-4 1-3-1-5-1-1v-1l-1-1Z" data-id="GH"/>
  <path d="M468 425h-3l-2-1h-1v2l-2 1-2 2h1v1l1 1 2 2 1 2 4-4h2l2 5h1l3 3 1-1h1v-1l1-1-1-5h1l-1-1v-2l-5-2h-4v-1Z" data-id="GN"/>
  <path d="M453 423h3l2-1h4l-4-1h-4l-1 2Z" data-id="GM"/>
  <path d="M457 424h-2l-1 1 1 2h2l1 2 2-2 2-1v-2h-5Z" data-id="GW"/>
  <path d="m527 453-1 3v1l1-1h4v-3h-4Z" data-id="GQ"/>
  <path d="m566 353-1 2 4 1h4v-1l-6-1-1-1Zm6-22v2l-2 1-2-2-2 1h-3v1h-2l-1 1h-2v1l-1 1v1l-1 2v1l3 6 1 2 2 2h2l-1-3 2-1-1-1 3 1v-2l-3-3 1-1-2-5 2 2h3l-2-2 3-1h4l1-3-2-1Z" data-id="GR"/>
  <path d="m403 0-10 2-4 9-9-1-10 14v9l7 10-6-6-4-2-7-7-7 11-3-6h-9l-8 3-7 5 1 9-4 2-9 12-3 6 8 6-1 6-10 7-11 7v5l6 5 12 4h-6l-7 4 5 8 3 3h7l7-1 6 1 8 7-1 4 4 4 6 18 1 3-3 9 2 2 3-1 7 8-5-2h-3l-1 4v6l4 2 7-5-1 6-1 4-4 2-3 9 2 3-1 5 4 6v6l2 4 5 7 1 6 3 3h6l4 5h4l2-11-1-4 5-5 1-4v-5l3-4 7-3 2-1 6-4 4-8 3-3h3l8-2 8-6 7-7-11-1 3-5-1-5 6 8 5-2-1-7-4-5-4-2 2-3 5 4v-4l-3-7h4l3-1 1-4-3-4h6l-3-9 3-1-1-10-5-6 4-4 5-1-4-8V91l3-9 3-12-7-1 9-2 2-4 11-13-1-8-9-4-13 8-7 7 3-11-3-7-5 6-8-7-10 2-1-3 14-2 11-1 5-8-17-19-22-3Z" data-id="GL"/>
  <path d="M250 409h-2v2l1 3h-3l-2 3v2l2 1h3l1 1 2-2 1-1 1-2 1-1h-2v-6h-3Z" data-id="GT"/>
  <path d="m340 442-2-3-2-2-2-1-4 5v2l2 2h1l2 3-1 4 2 4h2l5-2-2-2-2-4 2-3 1-2-2-1Z" data-id="GY"/>
  <path d="m269 417-2-2-3-1-8 1h-1l-1 1-1 2-1 1h1l2 2 1-1 1 2 1 1 1-1v-1h3l4-3 3-1Z" data-id="HN"/>
  <path d="m546 313-2 1-1 2v2l-5-1 1 3 1-2 1 1 1 3 2 3 7 4v-1l-2-1-5-7v-2l1 1h6l2 1 1-2-1-1-1-1h-3l-2-2-1-1Z" data-id="HR"/>
  <path d="m299 403-3 1h2l1 3h-5l1 2 4-1 2 1-1-2 1-1v-2l-2-1Z" data-id="HT"/>
  <path d="M547 307v1h-2l1 1-1 3 1 1 1 1 2 2h3l2-1h2l2-1 2-3 1-2 2-1v-1l-2-1-4-1-1 1-7 2-2-1Z" data-id="HU"/>
  <path d="m835 488-2-2h-3l4 2h1Zm12-2v-2l-3 1-1 3h2l2-2Zm-20-4-2 1-1 2 6-1v-2h-3Zm14 0h-6l-2 1v1h7l1-2Zm-40-4-4-2h-3l-2 2 3 1v1l5 1h3l4 1 8 1 3 1 3-1-3-2h-5l-1-2-5-2v2l-6-1Zm73-1v-2l-2 1v3l2-2Zm-21-8-1-1h-3l1 1 2 1 1-1Zm9-1-3-1h-4v2h6l2 1-1-2Zm29 17v-18l-3-1-4-2h-3l-3 2-2 3-3-2-1-5-5-2-1 1-4 1 1 1 3 1 1 2h4l-5 1 4 4 1-2 4 3h2l6 2 1 3 1 3-2 1-1 2h3l1-1 3 1 2 2Zm-44-30-3 2h-7l-2-1-2 2-2 7-2 2 1 2h1l1 3-1 2 3 1v-7l2-1-1 2 2 2 1 2 2-1-1 2 1 1 2-1v-2l-3-3 1-1-3-3 2-1 3-3-5 1-2 1-2-2v-2l7-1 3 1 2-1 2-3Zm10 1-2-1-2 2 1 3 1-2 2 1v-3Zm-30-8-6-1-1 4-1 1-1 3-2 1h-4l-2 1h-3l-2-1-1-2-1 2v5l1 2 1 1 1 4h4l1 1 3-1 3 1 2 2 3-1v1l1-5v-2l3-2v-3l1-2h3l-3-3v-1l-2-3 2-2Zm-34 28 1-5v-3l-1-2h-2l-4-5 1-2-2-1-2-2-2-2h-3l-6-6-3-3-6-1 1 2 5 4 1 3 2 1 2 5 3 2 2 4 5 6 3 2 2 3h3Z" data-id="ID"/>
  <path d="m721 369-3-2v-3h2v-2l-1-1v-3l-3-4-3 3h-7l-1 1 1 5 3 2-3 2v2l-2 3-2 3-3 4h-3l-3 3 2 1v3l1 1 1 3h-6l-2 2 3 2 1 2-1 1 3 3 2 1 4-2 1 6 2 9 2 4 2 6 1 3 3 8 3 2 2-2 3-1-1-1 1-2h1v-5l2-3-1-6 1-2 5-2v-1l8-8 4-2 1-1v-3h6v-1l-1-5v-2l-2-1 3-2-2-2 1-2 3 2v2l7 1-1 2-2 2 1 2 2-2 1 5 1-1 1-5h2l3-6v-2l3-2h2l1-2v-1l-3-1 1-1-1-2-2 1-3-1-3 2-2 3h-3l1 1v2h-6l-3-1v-3l-2 1v4h-2l-6-1-1-1-4-1-9-4 1-3 2-1-4-3Z" data-id="IN"/>
  <path d="m477 278-4 3 2 5-3 5h4l5-2 2-4v-4h-4l1-3-1-3-2 3Z" data-id="IE"/>
  <path d="m624 339-2 1 1 4v1l1 3 2 4 2 1v2l-1 2-1 2 2 3 3 2 2 3-1 2 3 3 1-1 2 1h1l4 7 3 1 2 2 4 1 6-1 1 4 6 1 6 1 1-4 4-2-2-2v-2l-3-2-1-2-1-1 2-3v-2l-2-1-1-5 1-1-1-1 1-2 1-5v-2l-3-1-3-3h-2l-3-2h-5l-2 2-2 1-1 1-4 1-4-1-2-1-3-1v-3l-3-1 1-2-2-1-3 3h-1l-2-1-1-1-1-2Z" data-id="IR"/>
  <path d="m617 348-1 2-1 1v3l-1 4-6 3 1 4 3 1 4 2 8 7h5l2-3h4l-3-3 1-2-2-3-3-2-2-3 1-2 1-2v-2l-2-1-2-4-1 1-1-1-3-1-2 1Z" data-id="IQ"/>
  <path d="M460 210h-5l-4 3-4-2-4 4-4-4-5 1-1 4 5 2v1l-4 2 6 3-3 3 11 3 11-6 3-5-3-4 1-5Z" data-id="IS"/>
  <path d="M599 362h-2v1l-1 2-1 3 2 5v1l1-5v-2l-1 1v-2l1-2h1v-3 1Z" data-id="IL"/>
  <path d="M543 345h-8l-1 2 8 3v-3l1-2Zm-17-11-3 1v6l1 1 3-1v-5l-1-2Zm3-22v1l-1 1h-3v1l-5 1-1-1v2l1 1-1 1v3l2 1v1h1l3-2 3 2 1 3 7 7h2l3 2 4 6-1 1 1 2 1-3h1l1-2-2-1 1-2h2l2 2v-2l-2-2-5-2 1-1-3-1-3-3-1-3-3-2-1-5 2-2 3 1-1-2v-2l-4-1v-1l-3 1h-2Z" data-id="IT"/>
  <path d="m287 409 1-1-1-1h-4v1l4 1Z" data-id="JM"/>
  <path d="m608 361-6 4-3-2v3l-1 1v2l-1 5 3 1 2-2 2-1 1-1-2-4 5-1 1-1-1-4Z" data-id="JO"/>
  <path d="m873 359-2-1-1 1h-1l-2 2v1l2 1 1-2h1l1 1 2-2-1-1Zm18-11v-3l3-4v-3l-2-5-3 1-1 2v4l-1 5-6 4-2-1-3 6-3-1-5 1-2 3-3 1-1 2-3 1 1 3 2 1-1 3 1 1 2-2 2-5-3-3h4l3-1 5-1v3l2 1 4-4h4l4-2 1-2v-2l1-3Zm8-25-2-2-3-4-2 9h-3l-1 3v3h3l2-4 4 3 3-4 4-1-1-4-2 1h-2Z" data-id="JP"/>
  <path d="m682 278-1 1-11 2-1 1 2 4-3 1 1 1-3 2 5 3-1 2h-4l-1 1-3-2h-5l-2 2-4-2-6-3h-4l-6 5v3l-3-2-2 5-1 4 2 2h2l2 3v2l1 1 3-1 3-2 2 1h3l1 2-1 4h-5v3h-2l1 2 1 4 4 1-1 3 1 1 1-2h3l2 1 2 3 1-1v-14l7-2 7 5 3 3 8-1 3 3v4h1l1 3h4l1 2 2-3 3-2 2-1v-2h2l5 1v-2l2-1 4 2 1-1 8 1 2 1 2 1-1-3 2-1-2-6 5-2 2-1 2-7 5 1 2-1v-5h2l2-3-1-2h-4l-1-2-2-1-1-2-2-1-4 1-4-2-1 2-6-11-4-4 1-2-7 5h-2v-2l-4-2-3 1v-5l-5-1-3 2-7 2Z" data-id="KZ"/>
  <path d="m614 449-1-1-3 2-4-1-7-4-1-1-2 2-2 2 2 2 1 4-1 2-2 3 1 1-1 2 11 6v2l4 2 1-1 1-2 1-2 1-2 2-1-1-2v-10l2-3h-2Z" data-id="KE"/>
  <path d="m721 329-2-1-8-1-1 1-4-2-2 1v2l-5-1h-2v2h1l-3 3 2 1 2-1 4 2-4 3-2-1-1 1h-3v2h3l3 1 5-1 1-1 4-3 3 1 1-3h4l1-2 4-2h1l-2-1Z" data-id="KG"/>
  <path d="m795 419-1 2-2-2h-3l-3 1-2 2 1 3 1 3 1 2h2l3-1h3l-2-2 5-2v-5l-3-1Z" data-id="KH"/>
  <path d="m852 349-2 1 1 3v5l2-1 3-1 2-1 1-1v-4l-1-3-2-4-4 1-1 2h-1l2 3Z" data-id="KR"/>
  <path d="M556 328v2h1v1h1l1-1h1v-2h-4Z" data-id="-99"/>
  <path d="M629 375h3v2h2l-1-3h1l-1-2h-2l-2 3Z" data-id="KW"/>
  <path d="M798 417v-2l-7-8-3-2 3-2-1-2h-4l-1-3-2-3-1 1v3h-1l-3 1v2h1v2h2l-1 6 3-2h5l2 2 1 3 2 3v2l-1 1 2 2 1-2 3 1v-3Z" data-id="LA"/>
  <path d="m600 360 2-2-1-1h-1l-2 2-1 3h2v-1l1-1Z" data-id="LB"/>
  <path d="m476 438-1 1-3-3-2 1-1 2v1l-1 1 2 1 3 2 2 2 3 1h1v-3l-3-5 1-1h-1Z" data-id="LR"/>
  <path d="m569 366-5-1v-1l-4-1h-2l-3 3 1 3-3 2-3-1-6-2-2-3-7-2-3-1v2l-4 4v2l-2 1 1 3v9l-1 1 3 6 1-1 2 2 1 1 5 2 1 1 2-1 3-1 11 5 11 6v-1h3v-34l1-2-1-1Z" data-id="LY"/>
  <path d="m725 442 1-1 1-2-5-7-1 5 1 4 1 2 2-1Z" data-id="LK"/>
  <path d="m578 548 3-4-2-2-4 4 2 3 1-1Z" data-id="LS"/>
  <path d="m571 271-2-2-3 1-4-1-4 2 1 4 3 1 1 1v2l1 1 1 1h3l3-2v-2l3-2-1-2-2-2Z" data-id="LT"/>
  <path d="M517 299v-1h-1v3h1v-2Z" data-id="LU"/>
  <path d="m573 264-2-2-1-1-3 1v4h-2l-3-4-2 2-2 3v4l4-2 4 1 3-1 2 2 2 2 2-1 3-2-1-3v-2l-1-1h-3Z" data-id="LV"/>
  <path d="m493 355-3-1-3 1-1-2h-2l-3 6-5 3-2 2-1 4v4l-5 6h-3l-3 5-2 1-1 3-3 5-3 5v2l6-1 2-2v-4l4-4 2-3 1-3 8-1v-5l4-3 5-1 2-1 3-2v-2l3-2h3l-2-10h-1Z" data-id="MA"/>
  <path d="m579 317 1-3h3v-1l-2-4v-1l-5-3-2 1 1 1 3 5v5h1Z" data-id="MD"/>
  <path d="m639 497-3-4-1 3-3 4-4 4-5 1-1 3 1 6v2l-3 4v2l2 9 4 2 5-2 6-21 1-7 1 1v-7Z" data-id="MG"/>
  <path d="m176 367 4 7 3 3-1 2 1 2 6 4v4l5 4 1 1-1-4h-1l-3-7-3-4-2-4-2-2-2-5 1-2 4 2 1 4 5 7h1l1 2 3 2-1 2 3 2 2 2 2 3 5 7v2l-1 1 2 3 3 1 1 2 3 1 16 6 4-1 5 2 3 3v-2l2-3h3l-1-3v-2h5l2-2h1v1l3-8v-1l-5-1-4 2-2 5-2 1-8 2-1-1-3-1-4-5-1-7v-4l2-5h-1l-5-1-1-4-4-6-2-1h-2l-2 2-4-3-1-2-4-4h-5v2h-8l-10-4v-1l-7 1 1 3Z" data-id="MX"/>
  <path d="M562 330h-3l-1 1h-1v3l1 1h2l1-1h2v-1h1l-1-2-1-1Z" data-id="MK"/>
  <path d="M509 406v-2l-4-3-9-7-10-6h-4l3 26v2h-11l-7 2h-1v2l1 2 1 1v3h4l5 2v2l1 1h3l2-1 1 1h1v-2l1-2 2-3 1-2h1l4-3 5-1h2l2-1 1-1h6v-2l2-2v-7l-3 1Z" data-id="ML"/>
  <path d="m781 397-2 1-4-2 1-2-2-1v-2h-3v-3l3-3v-5l-2-3-2 1v1l-1 2h-2l-3 2v2l-3 6h-2l-1 5-1 1v2l-1-1v3l2 2 4 5v3l-1 3 4 1 4-3 2 2 1 7 1 2v3l1 1-1 3v2l3-6-1-2v-3l-2-3 1-4-4-7h1l2-3h1l2-2h2v-2l3-1v-2Z" data-id="MM"/>
  <path d="M556 327h-1l-1-1-1-1-1 1-1 2v1l1 1 1 1h1v-1l1-2v1h1v-2Z" data-id="ME"/>
  <path d="M780 292h-3l-3-2-3 4 1 3-2 3-4-1h-3l-2-2h-3l-2-2-4 2-6 4-3 1 1 3 2 2 4 2 2 3-1 5 1 1 7 1 4 3h1l2 4 1 2h3l6 1 4-1 2 1 5 2h3l1 1 3-2 5-1h4l3-1 4-4-1-3 1-2 5 1 2-2 5-2 2-2 2-1 4-1 2 1v-2l-2-3-3-1-2 2-2-1h-2l-1-1 2-4 2-4-4 1-3-2-4 3h-4l-2 2-6-1-2-2-3-2-2-1-4 1h-2l-4-1-1-4-3-1Z" data-id="MN"/>
  <path d="m612 488-2 2-3 1h-2l-1 1h-3l-3-1h-1l-1 3 1 3 2 3v4l-2 3-2-2 1-3-2-2-2-1-8 2v3h2l5 2v4l-1 4 1 1-2 4-2 4 1 4 1 2-1 4v1l1 1v1h2v-1l-1-2 2-1 5-3 1-1 1-6-3-4v-3l5-3 3-3 5-3 2-1 2-4v-2l-1-10v-1Z" data-id="MZ"/>
  <path d="M476 380v5h-9v8h-3v6h-11v1l1 1 1 2v5l-1 5v1l6-1 3 1 1 2 2 2h1l7-2h11v-2l-3-26h4l-10-8Z" data-id="MR"/>
  <path d="m594 486-3-1 1 1v8l-1 4 1 1 2 1 2 2-1 3 2 2 2-3v-4l-2-3v1l-1 1-2-5 1-2v-3l-1-2v-1Z" data-id="MW"/>
  <path d="M778 443v2l1 3 2 4 6 4h2l-1-4h-1v-6l-3-4h-1l-2 2-1-2-2-1v2Zm42 1v3l-2 1-1-1-2 2-2 2-4 1-1 2-2 1-2-1 1 2 2 1h3l2-1h4l2-1 1-3 1-1 1-4 6 1 2-1-1-1 2-1 1-1-5-1v-1l-2-2-2 2-2 2Z" data-id="MY"/>
  <path d="M559 510h-6l-2-2h-12l-3-1-3 1v2l2 3 2 6 3 5v4l2 10 1 2 2 2 2-1 1 2h5l2-1v-20l3-1v-10l6-1 1 1 3-1 2-1-2-1h-1l-3 1-5 1Z" data-id="NA"/>
  <path d="m964 522-8-6-1 1 2 2 5 4 2-1Z" data-id="NC"/>
  <path d="m533 392-9 6-8 6-4 1v7l-2 2v2h-6l-1 1-2 1v1l2 4 3 1v2l1-1h1l2 2v-3l2-3h3l3 1h4l3 2 3-2h4l7 3v-1l1-1v-1h-1v-2l-1-1 1-4 3-2v-4l2-6v-1l-1-1v-1l-1-1-1-5-2 1-1-1-5-2Z" data-id="NE"/>
  <path d="m539 425-7-3h-4l-3 2-3-2h-4l-3-1h-3l-2 3v4l1 1-3 7-1 6h5l2 2 2 4 5-1 3-1 2-4 5-1 2-1 1-4 1-1 3-6 2-2v-1l-1-1Z" data-id="NG"/>
  <path d="M258 423h-1l3 3 1 2h1l5 1h1v-8l1-3v-1l-3 1-4 3h-3v1l-1 1Z" data-id="NI"/>
  <path d="m517 283-4 2-2 7-2 1h2l3-1 2 2 1 1v-4h1l2-6-1-2h-2Z" data-id="NL"/>
  <path d="m531 256 1-3 2-4 1-6-2-3v-8l2-6h3l1-2-1-3 4-9 5-13h2l1-4 5 1 1-5h1l2-2 3 4 4-1 3 2 2-3 2-6 4-3 3 4-1 5 3-1 4-3-3-5 4-2-9-6-5 1h-5l-4 7h-5l-6 3-7 10-5 6-7 13-5 9-5 7-8 5-2 4 1 13 1 6 4 3 3-2 6-6 2 3Zm38-153-4-3-2-5-5 3 1 4-2 4 5 3 7-6Zm-18-26-4-6-4 1-1 5-4 1-1-6-8 6 2 11 6 12 4 4-3 4 6 8h3l2-11 2-2 2-10 7-6-9-11Zm20-11-7-5-3 5-4-4-9 5 3 8h4l1 4 8 3 8-2 4-9-5-5Z" data-id="NO"/>
  <path d="m741 379-3-1-4-2-1-2-7-3-1 1-2 1-1 3 9 4 4 1 1 1 6 1h2v-4h-3Z" data-id="NP"/>
  <path d="m980 584-1-2-2 2-2 6-2 2-6 4-4 4-1 3v1l3 1 2 1h3l3-3 3-6 2-2h2l-1-2 4-6-1-3-2 2v-2Zm4-17-1-3-2-1-1-2-1 1 6 9-1 5-2 2v1l3 1 1 2-2 3 2 2 2-2 3-5v-2h3l1-6h-1l-2 1-4-1v-3l-2-1v3l-2-4Z" data-id="NZ"/>
  <path d="M656 388h-1l-2 6v1l1 2-1 6-9 3 2 5 1 2 2-1 11-6v-2l2-2 4-7-3-3-5-2-2-2Zm0-3 1-1-1-1v2Z" data-id="OM"/>
  <path d="m711 353-1-3-2-2-1 1-8 2-1 1 1 3-2 2v2h-3l1 2-2 1-1 2v2l-6 2-2 2v2l-4 2h-7l-4-1 1 1 1 2 3 2v2l2 2-4 2-1 4 3-1h5l5-1 2 3 1 2 2 1 2-2h6l-1-3-1-1v-3l-2-1 3-3h3l3-4 2-3 2-3v-2l3-2-3-2-1-5 1-1h7l3-3-5-1Z" data-id="PK"/>
  <path d="m284 435-5-2h-1l-6 1-1-1v2h-1v2l5 1 1 1 2-1-1-1 4-3 1 1 1 4h1l1-1 1-1-1-2h-1Z" data-id="PA"/>
  <path d="M305 470h-1l2-3-2-1h-7l-1-3-4-3h-1v2l-1 2-3 3-3 1-2 4-2 1-3-1v-3l-2 2-1 2 2 2-1 1 4 3 2 4 5 11 2 3v1l1 3 2 1 5 3 6 3v2l3 1 1-1 1-1 2-3-1-3v-2l1-1 1-5-3-5h-3l1-4-3 2-2-1-1-1h-2v-1l-2-5 1-1 1-1 1-4 6-3h2l-1-1Z" data-id="PE"/>
  <path d="m851 436-1-2-2-2v2h-2v2h-3l-1-1-3 2v3l4-2 2 1-1 1 1 2 3 2 1-1-1-2 1-2 1 3 1-6Zm-7-5v-3l-2 3 1-2h-2l-2 3 2 2 3-3Zm-15 2 3-3-1-2-1 2-5 6 4-3Zm9-7v4l2-1 1-2-3-1Zm10-1-1-1h-2l1 4-1-1 1 4 3-2-1-4Zm-11-2-1-1h-2l2 3 1-2Zm-1-16h-1l-1 3v4l-2-1 3 8h3l2 2 1-2 3 3v-3l-4-2h-2l-1-2v-2l2-1 1-3-4-4Z" data-id="PH"/>
  <path d="m932 478-3-4v2l3 2Zm-10-3v-2l-2-2 1 2-3 2h-6l3 2h2l3-2h2Zm-31-8v18h5l2-1-1-2 4-1 4 1 3 4 2 2h5l1 1 2-1-4-3h-1l-2-3-3-2v-2h2l-1-2-4-1-4-5-5-1-5-2Zm34 5-6-6 1 2 5 4Z" data-id="PG"/>
  <path d="M552 279v-1l-3-1-8 4-2 1 1 2-1 2 2 5 1 3 1 1 2 1 1 2 1-1h2v2h2l1 2h2l1 1 5-1 3 2-1-2 3-4 2-1-2-4v-2l-1-2 2-1-1-4v-2l-1-1-1-1h-11Z" data-id="PL"/>
  <path d="m318 408-4-1v2l4-1Z" data-id="PR"/>
  <path d="m862 329-1-2-2 2-4 2 1 2h-3l-1-1-2 2-3 2-2 2 1 1 2 1-2 5 3 1h2l1-2 4-1-2-1v-3l3-1 3-3v-3l2-2h1l-1-1Z" data-id="KP"/>
  <path d="m475 333 1 1-1 5-1 1 1 4v5h3l1-1 1-6-1-2 1-1 1-5 1-1v-2l-4 1-1-2-2 1v2Z" data-id="PT"/>
  <path d="m339 516-3-2h-3l-4 1-2 4-1 4 5 5h3l3 2 3 2v1l-3 5 6 1 3-1 2-2v-3l1-1-1-4h-1l-4-6-1 1-3-1v-6Z" data-id="PY"/>
  <path d="m598 364-1 2v2l1-1 1-1v-2h-1Z" data-id="PS"/>
  <path d="M643 387v-2l-2 1v3h2v-2Z" data-id="QA"/>
  <path d="m573 306-4 2-1-1h-4l-1 1-2 1-1 2-2 3-2 1 2 1 2 3v1l2 2h1l1 2h7l5-1 3 1 1-4h1l1-1v-1h-2l-2-1v-5l-3-5-1-1h-1Z" data-id="RO"/>
  <path d="m898 296-1-5v-4l-1-8-2 1 2 2-3 2v6l1 5v21l2-4 2 3v-3l-3-4 2-6 4 1-3-7Zm-335-18v-1l-1-1-3-1-4 2v2h8v-1ZM15 209v-4l-7-7-7-6v28l1-3-1-3 3-1v2l1 2h3l3 1 1 3 4 1 2 3h2l1-1v-7l5-1 3-2-6-7-7-1v5l-1-2Zm984-32v-6l-3 3v3h3ZM4 176l3-2v-1l-4-2H1v6l3-1Zm894-21v-2l-4-4-3 1-3 4 6 1h4Zm20-19-7-3-5-1-1 3 5 5 5 1 3-5Zm-16-5-10-6h-7l-4 2-1 7 5 7 5-2h10l2-8Zm-242 47-6-7v-8l4-9 4-10 9-10 8-5 10-6 2-3-2-5-5 2-5 4-9 2-10 8-6 5 1 5-7 9 3 1-6 8 1 6-3 1v5l5 3 1 3 9 1h2Zm-74 9-4 3-3 1v5l4 5-2 6 3 8-2 5 2 5-1 4 4 5-1 3-8 10 3 3-3 3v1l-2 3 1 5-1 2 1 1v2l1 3 3 2v1l2-1 3 1-1 4 2 3 4 4-1 1h-3v2l1 3h1l1-1 4-1 1 3v2l2 1 1 1v1l4 2 2-1 1 2h2l4 2v1l-1 2 1 2-1 2h-2l-2 1v2l3-1v1l-5 2 2 1-2 4h-2l2 3 3 1 4 3 2 1h5l3 2 1 1 2-1 2 1 1 1 2 1 2 3h2v-1l2-1-3-5v-2l-3-4 3-4 3-1 1-2-1-1v-2l-2-3h-2l-2-2 1-4 2-5 3 2v-3l6-5h4l6 3 4 2 2-2h5l3 2 1-1h4l1-2-5-3 3-2-1-1 3-1-2-4 1-1 11-2 1-1 7-2 3-2 5 1v5l3-1 4 2v2h2l7-5-1 2 4 4 6 11 1-2 4 2 4-1 2 1 1 2 2 1 1 2h4l1 2h1l3-1 6-4 4-2 2 2h3l2 2h3l4 1 2-3-1-3 3-4 3 2h3l3 1 1 4 4 1h2l4-1 2 1 3 2 2 2 6 1 2-2h4l4-3 3 2 4-1 3 2 4-3v-2l2-4 2-2v-2l-2-1 3-3 3-1h4l4 2 2 1 4 10 1 4 5 1 3 3 1 4h5l2-1 4-2-1 4-1 2-1 4-2 4-3-1-3 1 1 4v4h-2v2l1 1v-1l4-3 2 2h1l4-2 9-12 1-3 4-6 2-6v-6l2-4v-4l-4-5h-3l-2 2-2-1-2-3-4-1 10-11 9-11 10-1 8 1 3-3 5 1v4l4-1 6-1-2-4 7-9 7-2 2 7 7-6 2-5 3-1-2 9-5 4-5 6-5 7-4 1v2l-3 3-1 7 2 11 1 6 1 3 4-4 1-4 4-1 1-6 5-2-2-2 2-4 2-1 1-7-4-1v-2l4-6 1-3 3 1 3-3 1 2 7-4 4 4 1-3 9-7 2-1 8-4 5 1 1-2-1-2-1-2-1-5-3-3h4l3-31-4-4-8-3h-5l-9-2-1 3 2 5-4 3-5-7-5 1-5-2-5 1-4 1-3-2v-6l-2-4-6-1-11 2-7-7-2-5-25-6-4 4 2 8-5-1-2 2-5-2-5 2-4-4-3 9-4-3-4-7 2-4-1-6-5-5h-4l-6-2v8l-12-2-1-4-8-2-5 2-1 2-2-6-2 2-4-3-4-1 3-3 7-6 3-3 1-6-3-4-6-6h-8l-3 3v-6l-7-2 4-3-5-5-6 6-3 5-1 5h-5l-6 6-2-2-7 1-1 3-8 1-5 6h-3l-3 7 2 5-6 2-7-1-5 2 1 10 2 8-5-5h-6l-4 4 1 6-3-2 1-8-2-5h-1l1 7-5 5 3 7-2 9 1 4 3 1-1 5 1 4-2 3-1 4-3 2-1 2-3-1 5-10 1-5-3-5 1-11-1-5-2-3 3-7-1-6-7-2-2 2-2 8-5 8v3l2 6-1 4 3 1v1l3 5-2 3-10-8-4-3-8-2-2 3 3 4-3 5-3-5-4 4h-5l-2 2h-4l3-5h-2l-10 6-5 4-1 4-4 2-3-3v-4l4-1-2-4-7-2 2 5-2 4 3 4-2 5-3-3h-2l-7 7 2 5-2 1-7-4-2 3 2 2v3l-6-3v-10l-5-5 2-1 12 5 5-1 3-4v-5l-2-3-11-9-7-2-5-5-3 3Zm205-90 1-5-7-9-2-1-2 2-5 18 15-5ZM642 63l1-2-4-4-3 3-1 4-1-5h-4l-6 4h7l-2 5 3 4 3-3 1-2 6-4Zm135 26 1-13-7-16-5-9-6 4-7 12 4 3 2 11 4 6 8 4 6-2Z" data-id="RU"/>
  <path d="M583 463h-1l-1 1v3l1 1 1-2h2v-2l-1-1h-1Z" data-id="RW"/>
  <path d="M476 380v1l-8 1-1 3-2 3-4 4v4l-2 2-6 1v1-1h11v-6h3v-8h9v-5Z" data-id="EH"/>
  <path d="m624 375-8-7-4-2-3-1-1 1-5 1 2 4-1 1-2 1-2 2-3-1v1l-1 3h1l4 5 3 7 3 2 1 3 1 4 1 3 4 2 4 8 1 1 1-3h2l10 1 2-3 2-1 8-1 9-3 1-6-1-2-9-1-1-3v-2h-2v-1l-2-3v-2l-4-4-1-2h-2v-2h-8Z" data-id="SA"/>
  <path d="m602 412 1-1 2-1 2-1-2-1-1-1-1-7-1-3h-33v6h-3v13l-2-1-2 5v1l-1 3h1l1 4 1 2 1 1v3l1 1h2l2-4 2-1 2 3h6l3-2 3 1h1l3-3-1-3 3-1v5l2 3 1-3 3-4 1-2 2-3v-3l1-4v-2Z" data-id="SD"/>
  <path d="m566 435 2 2 2 2 3 4 2 1 1 1 2 2h4l1 1 3 2 1-1 1 1 3-1h2l1-1 2-2 2-2-2-3-3-3h-2l1-2 2-1v-2l-2-3v-5l-3 1 1 3-3 3h-1l-3-1-3 2h-6l-2-3-2 1-2 4h-2Z" data-id="SS"/>
  <path d="m464 416-1-2-3-1-6 1v2l-2 2h-1l2 1 1 2h4l4 1h-4l-2 1h-3l1 2 1-1h8l2 1h3v-2l-1-1-1-2v-2l-2-2Z" data-id="SN"/>
  <path d="m950 489-3-1 1 2 2-1Zm-4-2-3-2v1l3 1Zm2-1-2-3v1l2 3v-1Zm-5-3-4-3 5 3h-1Zm-6-3-3-2 3 2Z" data-id="SB"/>
  <path d="m471 436-2-5h-2l-4 4 1 2v1l2 1 2 1v1l1-1v-1l1-2 2-1h-1Z" data-id="SL"/>
  <path d="m252 419-2 2 1 1h1l4 1 1-1-1-2-1 1-2-2h-1Z" data-id="SV"/>
  <path d="m620 427-1 2-1 1 1 1 1 2 1 1 9 3h3l1-2 2-2v-5l-7 1-7 1-1-2-1-1Z" data-id="-99"/>
  <path d="m616 463 1-1 3-3 9-7 6-7 2-4 5-11v-4l-5 2h-1v5l-2 2-1 2-8 9h-4l-2 2h-2l-1 1-2 3v10l1 2 1-1Z" data-id="SO"/>
  <path d="M556 315h-2l-2 1 1 1 1 1-1 2h1l-1 2 1 1v2h-1l1 1 1 1h1v1h4v2h2l1-1 1-3-2-1v-2l1-1h-1l-2-2v-1l-2-3-2-1Z" data-id="RS"/>
  <path d="m342 443-1 2-2 3 2 4 2 2h2v-2l1 1 1-1 2 1v-1l1-1v-2l-1-1v-2l1-3h-8Z" data-id="SR"/>
  <path d="m560 301-5 1-1-1h-3l-2 3h-2v3l2 1 7-2 1-1 4 1 1-2 1-1-3-2Z" data-id="SK"/>
  <path d="m545 312-1 1h-2l-1 1-3-1v2l1 2h-1l5 1v-2l1-2 2-1-1-1Z" data-id="SI"/>
  <path d="M557 191h-1l-1 5-5-1-1 4h-2l-5 13-4 9 1 3-1 2h-3l-2 6v8l2 3-1 6-2 4-1 3 2 8 2 6 1 4h3l2-4 3 1 2-5 1-9 3-1 2-6-3-3-2-4 3-9 5-5 4-5v-4l3-5 4-2-1-2v-11l-4-5-4-4Z" data-id="SE"/>
  <path d="m587 533-2 2 2 3h1l1-2v-1l-1-1-1-1Z" data-id="SZ"/>
  <path d="m614 358 1-4v-3l1-1 1-2-3 1h-1l-3 1-4-1-3 1-1-1-2 4v4h1l1 1-2 2-1 1v2l3 2 6-4 6-3Z" data-id="SY"/>
  <path d="m555 398-11-5-3 1 1 5 1 1v1l1 1v1l-2 6v4l-3 2-1 4 1 1v2h1v1l1 2v4l2 3-4-1v2l4 5-1 1h3l5-2 2-2v-1h4l2-1 2-3 2-1 1-1-1-4h-1l1-3v-1l2-5 2 1v-12l-11-6Z" data-id="TD"/>
  <path d="M500 429v1l1 1 1 5-1 3 2 4 2-1-1-2 1-6-3-4v-1h-2Z" data-id="TG"/>
  <path d="M793 418v-2l-2-3-1-3-2-2h-5l-3 2 1-6h-2v-2h-3l-2 2h-1l-2 3h-1l4 7-1 4 2 3v3l1 2-3 6v6-2l3 4 2 1 2 1 1 2 2-2-1-1-2-1-1-1-2-5h-2v-2l2-7 1-3h2v2h2l3 1-1-3 2-2 3-1h3l1-1Z" data-id="TH"/>
  <path d="M696 337v-2l-4 1-2 4h-2l-1 1 2 1 1 3-2 3 1 1 2-1h1l1-1 3-3 2 2v3l1 1 4-3h5v-3l-2-1-1 1-1-4-5 1-3-1h-3v-2h3l1-1h-1Z" data-id="TJ"/>
  <path d="m685 345-4-1-8-6-1-4h-4l-1-1-1-3-3-2-3 2-2 1v2h-3l-1 1-2-3-2-1h-3l-1 2v2l1-3 2-1 1 3 2 2-3 1-2-1-1 3h2l-1 3 2 1v4l1 2 2-1 2-2h5l3 2h2l3 3 3 1v2l3 2 2-1v-1l4-2 1-3h2v-1h2v1l1-3Z" data-id="TM"/>
  <path d="m849 485 4-2h-4l-2 1v2l2-1Z" data-id="TL"/>
  <path d="m331 431-2-2v2h2Z" data-id="TT"/>
  <path d="m531 361-1-1h-1l-1-2 2-2v-3l-2-3v-2h-2l-3 1v8l-2 2v2l4 4 1 6 2-1v-2l4-4v-2l-1-1Z" data-id="TN"/>
  <path d="m600 353 2-4 1 1 3-1 4 1 3-1h1l3-1 2-1 3 1 1 1 1-1-1-3v-1l-1-4 2-1-1-1-2-1v-3l-3-2-3 1-3 1h-2l-4 1-4-2-4-2h-5l-3 1-4 2h-5l-1 3h-4l-3 3 1 2-1 3 2 2 2 3h3l2 2 2-1 1-1h3l2 2h4l2-2 3 1 1 2Zm-22-22-3-1-3 1 2 1-1 3h-1v1l1 2 4-3 3-1v-1l-2-1v-1Z" data-id="TR"/>
  <path d="m836 394 2-6-1-1-2 2-2 3v2l2 3 1-3Z" data-id="TW"/>
  <path d="m584 463 1 1v4l-1 3-1 1h-1v1l1 3-1 1 3 2v1l1 3 2 1h1l2 1 3 1 2 1v3l1 1h1l3 1h3l1-1h2l3-1 2-2h-1l-2-5v-4l-1-2-1-1 2-4-4-2v-2l-11-6-2 3 1 1h-5v-4h-3l-1 1Z" data-id="TZ"/>
  <path d="M593 449h-2l-3 1-1-1-1 1-1 3h1l-3 3v4l-1 1v2h2l1-1h3v-1l2-1 4-1 2-3 1-2-1-4-2-2-1 1Z" data-id="UG"/>
  <path d="M589 290h-3l-1 3h-4l-1-1h-4l-3-1h-5l-1 1h-2l2 4-2 1-3 4 1 2-1 1-1 2 2 1v1l1-1h4l1 1 4-2h1l2-1 5 3v1l2 4v1h-3l-1 3h-1l2 1h2l2-3 1-2h3v1l4 1 1 1-3 2 3 1-1 2 2 1 4-2 3-1v-1h-3l-1-1v-3l2-1h3l2-2h2v-2l2-1h2l1-2-1-2 1-2v-1l-4-2h-2l-1-2-2 1-4-2v-1l-1-1-2-1v-2l-1-3-4 1-1 1Z" data-id="UA"/>
  <path d="m340 547-1 3v3l-1 6 2 2h2l2 2h4l3-2 1-2-1-2 1-1-6-7-1 1-3-3h-2Z" data-id="UY"/>
  <path d="m69 405 2-1-3 2 1-1Zm-2-4v-1l-1 1h1Zm93-94 1 3-1 1-1-4-4-1 1 6v12l-1 4v3l1 3-1 3 1 2 1 3 3 5 2 5 3 3 8 5 2 2v2l7-1v1l10 4h8v-2h5l4 4 1 2 4 3 2-2h2l2 1 4 6 1 4 5 1h1l-1-5 2-2 3-2 2-2 9-1 2 2h2l2-3 3-1h5l2 1h6l3 5-1 2 3 6 3 3 1-1 1-5-1-5-3-7v-3l3-3 8-7 3-1 2-2-2-5v-8l1 3 1 2-1 2 3-4-1-4 1 2 2-3 1-2 5-2v-1l-4 1 2-1 6-2v-2l2-6 2-1 6-3v-1l-2-2v-6l-1-1-2 1-1-1-2 3-1 3-3 2v1h-10l-4 4h1v2l-2 1h-6v2l-2 2-5 2-2 1-3-1v-1l1-2 1-2v-4l-4 1 2-2v-3l-2-2-3-1-1 4v-1l-3 4 1 4v2l-1 2-2 1-2-6 1-5 2-3-3 3v-1l3-4 4-1h4l-1-1h-1l-1-2-5 2-4-2 1-3-7 4-1-1-3 1 4-4 2-2-3-1-2 1-3-2-5-1-1-3-1 2h-77l1 4Zm-84-42 2-2-1-2-6 3v2l2 1 3-2Zm-35-14v-2l-3-1-2 1 3 3 2-1Zm-17-23v3l3-1 3 3 2-2-3-1-2-2-2 1-1-1Zm114 49 2-2-1-3-4-4-3-5-2-4-2-3-2-2-2-3-3 2-2 3-3-3-2-3-2-1-3-1v-62l-3-1-4-3-4 2-2-1-5-1-6-3-3 1-4-1v-2l-5-1-1 2-2-4-4-2-5 5-2-1-5 4-3 1-3 4-1 4-3 3h-5l-2 4 4 3 3 3 2 4 3 2 3 5h-6v-4h-2l-6 4-4 3 3 3 1 3 4 2 4-1 3 1v-1l3-2h2l-2 3 2 1v3l-2 2-2-1-2 3-2-1-2 1-1 3-3 3-1 4 2 2v3l5 4 3-1 2 2v5h1l3-2 1 3 1-2 2 3 1-2 1 1 3-2-1 3v4l-3 3-4 3-1 2-4 1-3 2-5 4v1l5-1 7-5h2l4-2v-2l5-3v-2l6-4 3-4-2-2 4-4 2-4 3-3 1 1-3 2-1 6v3l3-1 3-2 4-2v-4l3-1 3 3 6 2h4l7 3 6 5 3 2h7l2 5 3 4 1 5 2 1 2 2Z" data-id="US"/>
  <path d="m695 331-3 2-2 3-1-2h-4l-1-3h-1v-4l-3-3-8 1-3-3-7-5-7 2v14h3v-2l2-1 3-2 3 2 1 3 1 1h4l1 4 8 6 4 1-1 3h4l2-3-1-3-2-1 1-1h2l2-4 4-1v2h1l2 1 4-3-4-2-2 1-2-1 3-3h-1l-2 1Z" data-id="UZ"/>
  <path d="m333 435-1 1-1-3-2-1h-2l-1-2h2-6l-2 1h-2l-2-1h-5l-2-3h-2l-1-2-1 3-3 1 1 3-1 2h-1l-1-2v-4l2-1h-2l-2 3-1 4 2 2 1 4h6l2 2h5l-1 5 1 3-1 2 2 1 1 3 1 1 3-1 3-2-1-5-1-1 5 1 1-1 5-1 1-1v-1l-2-2v-2l4-5-1-1Z" data-id="VE"/>
  <path d="m783 395 2 3 1 3h4l1 2-3 2 3 2 7 8v10l-5 2 2 2h-3l-3 1 2 2v2l1 1 3-2 2-2 6-4v-5l-1-5-2-3-2-2-5-6 1-2 2-3 4-3-3-1-1-1v-2h-3l-1-1-2 1-5 1h-2Z" data-id="VN"/>
  <path d="m963 501-1-1v3l2 1-1-3Z" data-id="VU"/>
  <path d="m644 406-8 1-2 1-2 3-10-1h-2l-1 3v2l-1 2 1 1 2 6h4v-1l10-3 2-2 8-2v-3h2l-1-2-2-5Z" data-id="YE"/>
  <path d="m585 522-1 1-1-1h-1l-4 2-3 3-2 3h-1l-3 3h-2l-2-1-2 1-3 3-2 1v-3l-2-3-1-1v12l-2 1h-5l-1-2-2 1 2 4 4 6v3h-1l1 5 1 1 4 1 1-1 6-2h2l3 1 5-1 3-2 7-7 3-4 3-3 1-4 1-3h-2l-1 2h-1l-2-3 2-2 1 1v-1l1-4-1-2-1-4-2-1Zm-7 26-1 1-2-3 4-4 2 2-3 4Z" data-id="ZA"/>
  <path d="m585 482-5 1-1 2 1 1-1 6 3 1v4h-2l-2-3-2-1-1-1-1 1-3-1-1-1-3-1h-1l1 1v5h-6v9l2 2 1 2 3-1h1l2 1 3 1 4-2 2-2 3-3h2v-2l8-2-1-1 1-4v-8l-1-1-2-1h-1l-2-1 1 1h-1l-1-1h-1l1-1Z" data-id="ZM"/>
  <path d="m589 519 2-4-1-1 1-4v-4l-5-2h-2v-1h-2l-3 3-2 2-4 2-3-1 1 3 2 2 3 3 2 3 2 1 2 1h1l1 1 1-1 2 1 2-4Z" data-id="ZW"/>
  <path d="m527 330-1-3-2 3v2l2 1 1-3Zm-22-35-1 3-7 4-2-2 1 5-5-1h-4l1 3 4 2 2 2 3 4-1 8-1 2 1 2 5 2 1-1 3 2 3-1 1-2 4-1 5 1 3-3v-1l-2-1v-3l1-1-1-1v-2l-1-1h-1v-2l3-2 1-1v-3l1-3-4-1-1-1h-1l-3-2h-1l-3-4-2-1-2 1Z" data-id="FR"/>
</svg>
